# xmcd
#
# Track frame offsets: 
#        150
#        17966
#        39832
#        58248
#        80532
#        107624
#        125275
#        140711
#        159188
#        172172
#        190564
#        209969
#        227936
#        244161
#        259145
#        277450
#        292774
#        308310
#        323781
#        336778
#
# Disc length: 4669 seconds
#
# Revision: 0
# Processed by: cddbd v1.5.2PL0 Copyright (c) Steve Scherf et al.
# Submitted via: ExactAudioCopy v1.1
#
DISCID=27123b14
DTITLE=Various Artist - De Pré Historie 80 - 4 CD Box - CD 2
DYEAR=2010
DGENRE=Top 40
TTITLE0=Mory Kante - Yé Ké Yé Ké
TTITLE1=Abba - The Winner Takes It All
TTITLE2=The Four Tops - Don't Walk Away
TTITLE3=Robert Palmer - Looking For Clues
TTITLE4=Michel Sardou - Les Lacs Du Connemara
TTITLE5=Cher - If I Could Turn Back Time
TTITLE6=Leon Haywood - Don't Push It Don't Force It
TTITLE7=Lionel Richie - Hello
TTITLE8=The Jam - A Town Called Malice
TTITLE9=Urbanus - Een Bakske Vol Met Stro
TTITLE10=ABC - When Smokey Sings
TTITLE11=Mary Jane Girls - In My House
TTITLE12=Nina Simone - My Baby Just Cares For Me
TTITLE13=Musical Youth - Pass The Dutchie
TTITLE14=Jim Diamond - I Should Have Known Better
TTITLE15=Stephanie Mills - Never Knew Love Like This Before
TTITLE16=Status Quo - The Wanderer
TTITLE17=F-R David - Words
TTITLE18=Bobbysocks - Let It Swing
TTITLE19=Harold Faltermeyer - Axel F
EXTD=
EXTT0=
EXTT1=
EXTT2=
EXTT3=
EXTT4=
EXTT5=
EXTT6=
EXTT7=
EXTT8=
EXTT9=
EXTT10=
EXTT11=
EXTT12=
EXTT13=
EXTT14=
EXTT15=
EXTT16=
EXTT17=
EXTT18=
EXTT19=
PLAYORDER=
